<svg xmlns="http://www.w3.org/2000/svg" width="67.4" height="83.294" viewBox="0 0 67.4 83.294">
  <g id="Group_8856" data-name="Group 8856" transform="translate(-1096.78 -1521)">
    <path id="Path_3211" data-name="Path 3211" d="M46.6,81.3V74.035a10.1,10.1,0,0,1,2.709-6.872L67.218,48.2a6.591,6.591,0,1,0-9.582-9.053l-8.921,9.384c.859-1.189,1.718-2.313,2.643-3.436L67.945,25.928a7.261,7.261,0,0,0-10.969-9.516L40.389,35.576c-.4.463-.793.925-1.189,1.454a57.107,57.107,0,0,1,3.767-6.013L55.191,13.439A7.26,7.26,0,1,0,43.3,5.112L31.005,22.69l-1.982,2.974,6.806-13.084A7.256,7.256,0,1,0,22.943,5.905l-6.806,13.15A85.759,85.759,0,0,0,7.15,47.338V83.286" transform="translate(1092.507 1521.008)" fill="#f7ebde"/>
    <path id="Path_3212" data-name="Path 3212" d="M7.51,72.878C3.876,57.415,9.889,44.463,19.867,33.3l2.775-3.106a5.946,5.946,0,1,1,8.921,7.864l-2.841,3.106c-7.467,8.392-6.872,16.52-1.916,25.111H46.828V74.86H7.84Z" transform="translate(1092.279 1529.434)" fill="#fff"/>
    <path id="Path_3213" data-name="Path 3213" d="M7.51,72.878C3.876,57.415,9.889,44.463,19.867,33.3l2.775-3.106a5.946,5.946,0,1,1,8.921,7.864l-2.841,3.106c-7.467,8.392-6.872,16.52-1.916,25.111H46.828V74.86H7.84Z" transform="translate(1092.279 1529.434)" fill="#f7ebde"/>
    <path id="Path_3214" data-name="Path 3214" d="M47.1,83.77a1.947,1.947,0,0,1-1.982-1.982V74.519a11.987,11.987,0,0,1,3.3-8.26L66.332,47.293a4.61,4.61,0,0,0-.2-6.542,4.424,4.424,0,0,0-3.3-1.256,4.616,4.616,0,0,0-3.238,1.454L50.671,50.4a2.032,2.032,0,0,1-2.709.2,1.971,1.971,0,0,1-.4-2.643c.925-1.256,1.85-2.511,2.775-3.568L66.927,25.222a5.293,5.293,0,0,0-8-6.939L42.345,37.447c-.33.4-.727.859-1.057,1.256l-.132.132a1.962,1.962,0,0,1-2.643.4,1.916,1.916,0,0,1-.595-2.577c1.189-2.181,2.511-4.229,3.833-6.212L53.975,12.865A5.3,5.3,0,0,0,54.834,8.9a5.386,5.386,0,0,0-2.181-3.436A5.3,5.3,0,0,0,48.688,4.6a5.386,5.386,0,0,0-3.436,2.181L33.159,24.363c-.595.859-1.256,1.784-1.916,2.908a1.94,1.94,0,0,1-2.643.661,2.03,2.03,0,0,1-.793-2.643L34.613,12.2a5.057,5.057,0,0,0,.33-4.031,5.216,5.216,0,0,0-2.577-3.106,5.057,5.057,0,0,0-4.031-.33A5.216,5.216,0,0,0,25.23,7.314l-6.872,13.15A84.766,84.766,0,0,0,9.568,48.152,2,2,0,0,1,5.6,47.624,87.309,87.309,0,0,1,14.855,18.68L21.727,5.464A9.064,9.064,0,0,1,27.146.9a9.37,9.37,0,0,1,7.071.595,9.064,9.064,0,0,1,4.56,5.419,8.368,8.368,0,0,1,.4,1.85l2.974-4.3A9.113,9.113,0,0,1,48.094.64a9.242,9.242,0,0,1,6.939,1.52,9.113,9.113,0,0,1,3.833,5.947,9.33,9.33,0,0,1-.793,5.683,9.161,9.161,0,0,1,10.9.859,9.281,9.281,0,0,1,.991,13.018l-6.74,7.864a8.731,8.731,0,0,1,5.683,2.313A8.638,8.638,0,0,1,69.24,50L51.332,68.968a8.1,8.1,0,0,0-2.181,5.485v7.269A2.058,2.058,0,0,1,47.1,83.77Z" transform="translate(1092.005 1520.524)" fill="#444b54"/>
    <path id="Path_3215" data-name="Path 3215" d="M22.306,74.689H53.034a6.063,6.063,0,0,0,6.079-6.079V8.013A6.05,6.05,0,0,0,53.034,2H21.579A6.063,6.063,0,0,0,15.5,8.079l.2,60.068A6.614,6.614,0,0,0,22.306,74.689Z" transform="translate(1095.192 1521.014)" fill="#f2f2f2"/>
    <path id="Path_3216" data-name="Path 3216" d="M19.761,32.337A5.946,5.946,0,1,1,28.682,40.2l-2.841,3.106a25.119,25.119,0,0,0-4.427,7,12.161,12.161,0,0,0,2.709.264,14.538,14.538,0,0,0,0-29.076A14.278,14.278,0,0,0,15.4,24.408l.066,12.82c.529-.595.991-1.189,1.52-1.784Z" transform="translate(1095.16 1527.286)" fill="#71c2ff" opacity="0.329" style="isolation: isolate"/>
    <path id="Path_3217" data-name="Path 3217" d="M32.8,48a3.3,3.3,0,1,0,3.3,3.3A3.3,3.3,0,0,0,32.8,48Z" transform="translate(1099.695 1535.809)" fill="#444b54"/>
    <path id="Path_3218" data-name="Path 3218" d="M7.982,75.339a1.916,1.916,0,0,1-1.916-1.52c-3.3-14.34.859-27.886,12.82-41.367l2.775-3.106A7.957,7.957,0,0,1,33.556,39.92l-2.841,3.04c-6.212,7-6.74,14.075-1.718,22.8A1.984,1.984,0,0,1,25.56,67.74c-5.947-10.309-5.286-19.031,2.181-27.424l2.775-3.106a3.769,3.769,0,0,0,.991-2.841,3.817,3.817,0,0,0-1.322-2.709,3.769,3.769,0,0,0-2.841-.991,3.817,3.817,0,0,0-2.709,1.322L21.859,35.1C10.824,47.519,6.925,59.943,9.965,72.894a1.97,1.97,0,0,1-1.454,2.379A1.86,1.86,0,0,1,7.982,75.339Z" transform="translate(1091.807 1528.955)" fill="#444b54"/>
    <g id="Group_3735" data-name="Group 3735" transform="translate(1108.512 1521.032)">
      <path id="Path_3219" data-name="Path 3219" d="M53.367,77.154H32.088a1.982,1.982,0,1,1,0-3.965H53.367a4.118,4.118,0,0,0,4.1-4.1V8.562a4.118,4.118,0,0,0-4.1-4.1H21.912a4.118,4.118,0,0,0-4.1,4.1v22.93a1.982,1.982,0,1,1-3.965,0V8.562A8.052,8.052,0,0,1,21.912.5H53.433a8.094,8.094,0,0,1,8.062,8.062v60.6A8.182,8.182,0,0,1,53.367,77.154Z" transform="translate(-13.85 -0.5)" fill="#71c2ff"/>
    </g>
  </g>
</svg>
