<svg xmlns="http://www.w3.org/2000/svg" width="407" height="64" viewBox="0 0 407 64">
  <g id="Group_8938" data-name="Group 8938" transform="translate(-5415 -6124)">
    <rect id="Rectangle_3017" data-name="Rectangle 3017" width="407" height="64" rx="32" transform="translate(5415 6124)" fill="#040707"/>
    <path id="Path_5190" data-name="Path 5190" d="M9,.36A8.393,8.393,0,0,1,4.584-.768,7.4,7.4,0,0,1,1.716-3.936a10.594,10.594,0,0,1-1-4.7,10.594,10.594,0,0,1,1-4.7,7.4,7.4,0,0,1,2.868-3.168A8.393,8.393,0,0,1,9-17.64a8.134,8.134,0,0,1,4.932,1.464,7.733,7.733,0,0,1,2.82,4.056l-2.9.792a4.986,4.986,0,0,0-1.728-2.64A4.99,4.99,0,0,0,9-14.9a4.686,4.686,0,0,0-3.888,1.68A7.141,7.141,0,0,0,3.768-8.64,7,7,0,0,0,5.1-4.056,4.721,4.721,0,0,0,9-2.376a4.99,4.99,0,0,0,3.12-.936,4.992,4.992,0,0,0,1.728-2.664l2.9.816A7.733,7.733,0,0,1,13.932-1.1,8.134,8.134,0,0,1,9,.36ZM23.256-12.288a4.1,4.1,0,0,1,1.212-.552,5.084,5.084,0,0,1,1.38-.192,4.566,4.566,0,0,1,.84.072v2.688a3.393,3.393,0,0,0-.912-.12A3.647,3.647,0,0,0,24-9.96a3.02,3.02,0,0,0-1.284,1.344,4.62,4.62,0,0,0-.42,2.04V0h-2.9V-12.96H21.96V-10.9A3.9,3.9,0,0,1,23.256-12.288ZM38.88-10.92a3.979,3.979,0,0,1,.4,1.284,13.87,13.87,0,0,1,.084,1.692V0H36.84V-1.752a5.343,5.343,0,0,1-1.932,1.6A6.11,6.11,0,0,1,32.28.36a4.909,4.909,0,0,1-2.352-.528A3.637,3.637,0,0,1,28.44-1.584a3.917,3.917,0,0,1-.5-1.968,3.9,3.9,0,0,1,.72-2.388,4.539,4.539,0,0,1,2.232-1.5,18.72,18.72,0,0,1,2.232-.516q1.3-.228,3.408-.516a2.257,2.257,0,0,0-.708-1.68,3.022,3.022,0,0,0-1.956-.528,3.455,3.455,0,0,0-1.74.444,2.291,2.291,0,0,0-1.068,1.38L28.392-9.7a4.792,4.792,0,0,1,1.884-2.664,6.2,6.2,0,0,1,3.612-.96Q37.656-13.32,38.88-10.92ZM36.192-4.1A6.133,6.133,0,0,0,36.5-6.12q-1.392.216-2.46.42a16.617,16.617,0,0,0-1.692.4,3.474,3.474,0,0,0-1.188.708,1.351,1.351,0,0,0-.4,1,1.494,1.494,0,0,0,.54,1.2,2.336,2.336,0,0,0,1.548.456,3.542,3.542,0,0,0,2.22-.672A2.966,2.966,0,0,0,36.192-4.1ZM48.144-15.288a1.694,1.694,0,0,0-1.224.4,1.451,1.451,0,0,0-.408,1.092v.84h3.12V-10.7h-3.12V0h-2.9V-10.7H41.52V-12.96h2.088v-.216a10.765,10.765,0,0,1,.144-1.9,2.93,2.93,0,0,1,.72-1.44,3.121,3.121,0,0,1,1.116-.8,3.644,3.644,0,0,1,1.1-.288q.492-.036,1.332-.036h1.608v2.352Zm7.2,9.84v.768a6.141,6.141,0,0,0,.06.948,1.719,1.719,0,0,0,.2.612,2.2,2.2,0,0,0,2.016.84,14.045,14.045,0,0,0,1.536-.144V0a11.855,11.855,0,0,1-2.208.24A6.186,6.186,0,0,1,54.516-.2a3.049,3.049,0,0,1-1.548-1.38A3.945,3.945,0,0,1,52.56-2.8a9.7,9.7,0,0,1-.1-1.476V-10.7H50.112V-12.96h2.352v-3.6h2.88v3.6H59.16V-10.7H55.344Zm8.328-.216a3.939,3.939,0,0,0,1.02,2.46,3.129,3.129,0,0,0,2.316.852,3.5,3.5,0,0,0,1.836-.468A2.97,2.97,0,0,0,70.032-4.2l2.856.864A5.674,5.674,0,0,1,70.62-.612,6.387,6.387,0,0,1,67.152.36,6.869,6.869,0,0,1,63.72-.492a5.919,5.919,0,0,1-2.34-2.376,7.146,7.146,0,0,1-.828-3.468,7.909,7.909,0,0,1,.816-3.672,5.919,5.919,0,0,1,2.28-2.448,6.485,6.485,0,0,1,3.36-.864,6.09,6.09,0,0,1,3.216.828,5.4,5.4,0,0,1,2.1,2.364,8.286,8.286,0,0,1,.732,3.6q0,.576-.024.864ZM67.128-10.8a3.127,3.127,0,0,0-3.384,2.928H70.1a3.683,3.683,0,0,0-.912-2.22A2.821,2.821,0,0,0,67.128-10.8Zm20.04-6.48V0H84.6V-.936A5.393,5.393,0,0,1,80.928.36,5.545,5.545,0,0,1,77.82-.528a5.8,5.8,0,0,1-2.088-2.448A8.15,8.15,0,0,1,75-6.48,8.017,8.017,0,0,1,75.744-10a5.862,5.862,0,0,1,2.112-2.436,5.688,5.688,0,0,1,3.168-.888,5.246,5.246,0,0,1,3.24,1.008V-17.28ZM81.36-2.232A2.78,2.78,0,0,0,83.82-3.36a5.421,5.421,0,0,0,.78-3.12,5.432,5.432,0,0,0-.78-3.108,2.671,2.671,0,0,0-2.364-1.14,2.921,2.921,0,0,0-2.52,1.188,5.075,5.075,0,0,0-.864,3.06,5.169,5.169,0,0,0,.84,3.072A2.82,2.82,0,0,0,81.36-2.232ZM94.128-12.984l2.856.024,2.544,8.3,2.544-8.3H104.5l2.568,8.3,2.52-8.3h2.832L108.456,0h-2.424l-2.76-8.928L100.344,0H98.088Zm20.688-4.632h2.88v2.64h-2.88Zm0,4.656h2.88V0h-2.88Zm10.272,7.512v.768a6.141,6.141,0,0,0,.06.948,1.719,1.719,0,0,0,.2.612,2.2,2.2,0,0,0,2.016.84,14.045,14.045,0,0,0,1.536-.144V0A11.855,11.855,0,0,1,126.7.24,6.187,6.187,0,0,1,124.26-.2a3.049,3.049,0,0,1-1.548-1.38A3.945,3.945,0,0,1,122.3-2.8a9.7,9.7,0,0,1-.1-1.476V-10.7h-2.352V-12.96h2.352v-3.6h2.88v3.6H128.9V-10.7h-3.816ZM138.48-13.32q3.072,0,4.092,1.98a8.83,8.83,0,0,1,1.02,4.092V0h-2.928V-6.24q0-4.368-3.048-4.368a2.89,2.89,0,0,0-2.16.888,4.31,4.31,0,0,0-.864,3.048V0h-2.928V-17.28h2.592v5.76A5.172,5.172,0,0,1,138.48-13.32Zm51.672-4.3h2.88v2.64h-2.88Zm0,4.656h2.88V0h-2.88Zm13.272-.36q3.072,0,4.092,1.98a8.83,8.83,0,0,1,1.02,4.092V0h-2.928V-6.24q0-4.368-3.048-4.368a2.89,2.89,0,0,0-2.16.888,4.31,4.31,0,0,0-.864,3.048V0h-2.928V-12.96H199.2v1.44A5.172,5.172,0,0,1,203.424-13.32ZM216.7-17.28h2.88V0H216.7Zm13.272,3.96q3.072,0,4.092,1.98a8.83,8.83,0,0,1,1.02,4.092V0h-2.928V-6.24q0-4.368-3.048-4.368a2.89,2.89,0,0,0-2.16.888,4.31,4.31,0,0,0-.864,3.048V0h-2.928V-12.96h2.592v1.44A5.172,5.172,0,0,1,229.968-13.32Zm19.488-3.96V0h-2.568V-.936a5.393,5.393,0,0,1-3.672,1.3,5.545,5.545,0,0,1-3.108-.888,5.8,5.8,0,0,1-2.088-2.448,8.15,8.15,0,0,1-.732-3.5A8.018,8.018,0,0,1,238.032-10a5.862,5.862,0,0,1,2.112-2.436,5.688,5.688,0,0,1,3.168-.888,5.246,5.246,0,0,1,3.24,1.008V-17.28ZM243.648-2.232a2.78,2.78,0,0,0,2.46-1.128,5.421,5.421,0,0,0,.78-3.12,5.431,5.431,0,0,0-.78-3.108,2.671,2.671,0,0,0-2.364-1.14,2.921,2.921,0,0,0-2.52,1.188,5.075,5.075,0,0,0-.864,3.06,5.169,5.169,0,0,0,.84,3.072A2.82,2.82,0,0,0,243.648-2.232Zm9.408-15.384h2.88v2.64h-2.88Zm0,4.656h2.88V0h-2.88Zm16.7,2.04a3.979,3.979,0,0,1,.4,1.284,13.869,13.869,0,0,1,.084,1.692V0h-2.52V-1.752a5.344,5.344,0,0,1-1.932,1.6A6.11,6.11,0,0,1,263.16.36a4.909,4.909,0,0,1-2.352-.528,3.637,3.637,0,0,1-1.488-1.416,3.917,3.917,0,0,1-.5-1.968,3.9,3.9,0,0,1,.72-2.388,4.539,4.539,0,0,1,2.232-1.5A18.72,18.72,0,0,1,264-7.956q1.3-.228,3.408-.516a2.257,2.257,0,0,0-.708-1.68,3.022,3.022,0,0,0-1.956-.528,3.455,3.455,0,0,0-1.74.444,2.291,2.291,0,0,0-1.068,1.38l-2.664-.84a4.792,4.792,0,0,1,1.884-2.664,6.2,6.2,0,0,1,3.612-.96Q268.536-13.32,269.76-10.92ZM267.072-4.1a6.133,6.133,0,0,0,.312-2.016q-1.392.216-2.46.42a16.616,16.616,0,0,0-1.692.4,3.474,3.474,0,0,0-1.188.708,1.351,1.351,0,0,0-.4,1,1.494,1.494,0,0,0,.54,1.2,2.336,2.336,0,0,0,1.548.456,3.542,3.542,0,0,0,2.22-.672A2.966,2.966,0,0,0,267.072-4.1Z" transform="translate(5483 6165)" fill="#fff"/>
    <g id="Group_8852" data-name="Group 8852" transform="translate(5637.148 6146.001)">
      <path id="Path_5129" data-name="Path 5129" d="M37.208,22.8H37.2a7.243,7.243,0,0,0-1.134.094,7,7,0,0,0-.782.175,6.8,6.8,0,0,1,5.023,6.489c0,2.11-1.023,2.934-2.571,5.209L32,42.15l9.626-7.384A6.69,6.69,0,0,0,44.2,29.558,6.882,6.882,0,0,0,37.208,22.8" transform="translate(-18.814 -21.811)" fill="#d174a3"/>
      <path id="Path_5130" data-name="Path 5130" d="M20.489,22.8A6.835,6.835,0,0,1,25.7,25.108,7.047,7.047,0,0,1,30.905,22.8a6.882,6.882,0,0,1,6.989,6.758,6.545,6.545,0,0,1-2.571,5.209L25.7,42.15,16.236,34.9a6.666,6.666,0,0,1-2.736-5.34A6.862,6.862,0,0,1,20.489,22.8" transform="translate(-12.511 -21.811)" fill="#ea6464"/>
      <path id="Path_5131" data-name="Path 5131" d="M21.579,25.85A4.82,4.82,0,0,0,16.7,30.6a.989.989,0,1,0,1.978,0,2.858,2.858,0,0,1,2.9-2.768.989.989,0,0,0,0-1.978" transform="translate(-13.601 -22.85)" fill="#fae6f0"/>
      <path id="Path_5132" data-name="Path 5132" d="M25.186,42.628a.988.988,0,0,1-.593-.2l-9.461-7.252A7.56,7.56,0,0,1,12,29.047a8,8,0,0,1,13.186-5.835A8.113,8.113,0,0,1,30.394,21.3a7.874,7.874,0,0,1,7.978,7.747,7.636,7.636,0,0,1-2.934,6l-9.659,7.384A.988.988,0,0,1,25.186,42.628Zm-5.208-19.35a5.912,5.912,0,0,0-6,5.769A5.594,5.594,0,0,0,16.318,33.6l8.868,6.824L34.218,33.5a5.606,5.606,0,0,0,2.176-4.417,5.891,5.891,0,0,0-6-5.769,6.09,6.09,0,0,0-4.483,1.978,1.059,1.059,0,0,1-.725.33h0a.945.945,0,0,1-.725-.33A5.9,5.9,0,0,0,19.978,23.278Z" transform="translate(-12 -21.3)" fill="#fff"/>
    </g>
  </g>
</svg>
