<svg id="google_play" xmlns="http://www.w3.org/2000/svg" width="30.368" height="34.441" viewBox="0 0 30.368 34.441">
  <path id="icons8-google-play" d="M6.592,2,22.818,18.109l4.449-4.449L7.6,2.3A2.153,2.153,0,0,0,6.592,2Zm-1.358.749A1.847,1.847,0,0,0,5,3.662v31.3a1.684,1.684,0,0,0,.14.679l16.6-16.483Zm23.39,11.683-4.753,4.73,4.753,4.706,5.807-3.325a1.477,1.477,0,0,0,.023-2.739C33.96,17.538,30.287,15.4,28.624,14.433Zm-5.807,5.783L6.452,36.441a1.843,1.843,0,0,0,.843-.234c.641-.372,13.6-7.867,13.6-7.867l6.392-3.676Z" transform="translate(-5 -2)" fill="#fff"/>
</svg>
