<svg id="web" xmlns="http://www.w3.org/2000/svg" width="35.32" height="34.441" viewBox="0 0 35.32 34.441">
  <path id="Path_121147" data-name="Path 121147" d="M23.3,11.419C22.055,5.65,19.406,2,16.955,2s-5.1,3.65-6.341,9.419Z" transform="translate(0.705 -1.263)" fill="#fff"/>
  <path id="Path_121148" data-name="Path 121148" d="M10,16.711a35.362,35.362,0,0,0,.315,4.716l13.5-.006a35.338,35.338,0,0,0,.314-4.71,35.362,35.362,0,0,0-.315-4.716L10.314,12A35.338,35.338,0,0,0,10,16.711Z" transform="translate(0.596 0.51)" fill="#fff"/>
  <path id="Path_121149" data-name="Path 121149" d="M10.614,22c1.242,5.769,3.891,9.419,6.341,9.419s5.1-3.65,6.341-9.419Z" transform="translate(0.705 2.285)" fill="#fff"/>
  <path id="Path_121150" data-name="Path 121150" d="M24.17,11.53h7.418a17.729,17.729,0,0,0-12.3-10.156C21.519,3.339,23.271,6.973,24.17,11.53Z" transform="translate(2.243 -1.374)" fill="#fff"/>
  <path id="Path_121151" data-name="Path 121151" d="M31.642,12H23.753a38.068,38.068,0,0,1,.291,4.71,38.082,38.082,0,0,1-.292,4.713l7.889,0a17.543,17.543,0,0,0,0-9.419Z" transform="translate(3.035 0.511)" fill="#fff"/>
  <path id="Path_121152" data-name="Path 121152" d="M19.285,32.156A17.729,17.729,0,0,0,31.59,22H24.172C23.271,26.558,21.519,30.191,19.285,32.156Z" transform="translate(2.243 2.285)" fill="#fff"/>
  <path id="Path_121153" data-name="Path 121153" d="M9.684,22H2.266A17.729,17.729,0,0,0,14.571,32.156C12.335,30.191,10.583,26.558,9.684,22Z" transform="translate(-0.776 2.285)" fill="#fff"/>
  <path id="Path_121154" data-name="Path 121154" d="M14.569,1.374A17.729,17.729,0,0,0,2.264,11.53H9.682c.9-4.558,2.654-8.191,4.887-10.156Z" transform="translate(-0.777 -1.374)" fill="#fff"/>
  <path id="Path_121155" data-name="Path 121155" d="M9.242,16.71A38.084,38.084,0,0,1,9.534,12L1.645,12a17.543,17.543,0,0,0,0,9.419H9.534a38.069,38.069,0,0,1-.292-4.71Z" transform="translate(-1.001 0.51)" fill="#fff"/>
</svg>
