<svg id="apple_logo" xmlns="http://www.w3.org/2000/svg" width="29.615" height="34.465" viewBox="0 0 29.615 34.465">
  <path id="icons8-apple-logo" d="M34.615,26.287a24.747,24.747,0,0,1-2.236,4.179c-1.455,2.213-3.506,4.975-6.041,4.993-2.256.02-2.839-1.472-5.9-1.446s-3.7,1.475-5.959,1.452c-2.537-.023-4.478-2.511-5.932-4.721-4.068-6.2-4.5-13.46-1.984-17.323a9,9,0,0,1,7.235-4.349c2.693,0,4.384,1.478,6.608,1.478,2.16,0,3.474-1.481,6.588-1.481a8.793,8.793,0,0,1,6.62,3.494A7.579,7.579,0,0,0,34.615,26.287ZM24.627,6.6A7.55,7.55,0,0,0,26.306,1a8.169,8.169,0,0,0-5.268,2.833,7.023,7.023,0,0,0-1.724,5.458A6.869,6.869,0,0,0,24.627,6.6Z" transform="translate(-5 -1)" fill="#fff"/>
</svg>
