<svg xmlns="http://www.w3.org/2000/svg" width="66.73" height="58.952" viewBox="0 0 66.73 58.952">
  <g id="Group_16095" data-name="Group 16095" transform="translate(-3913.097 -1702.048)">
    <g id="icons8-calculator_5_" data-name="icons8-calculator (5)" transform="translate(3906.097 1696.048)">
      <path id="Path_33265" data-name="Path 33265" d="M69.574,64.9H39.082A5.1,5.1,0,0,1,34,59.82V14.082A5.1,5.1,0,0,1,39.082,9H69.574a5.1,5.1,0,0,1,5.082,5.082V59.82A5.1,5.1,0,0,1,69.574,64.9Z" transform="translate(-13.278 -1.475)" fill="#fff"/>
      <path id="Path_33266" data-name="Path 33266" d="M74.459,24H46V34.164H68.869V33.91a1.525,1.525,0,0,1,3.049,0v.254h2.541Z" transform="translate(-19.18 -8.852)" fill="#9fbad3"/>
      <path id="Path_33267" data-name="Path 33267" d="M68.1,64.952H37.607A6.594,6.594,0,0,1,31,58.345V12.607A6.594,6.594,0,0,1,37.607,6H68.1a6.593,6.593,0,0,1,6.607,6.607V58.345A6.594,6.594,0,0,1,68.1,64.952ZM37.607,9.049a3.536,3.536,0,0,0-3.557,3.557V58.345A3.536,3.536,0,0,0,37.607,61.9H68.1a3.536,3.536,0,0,0,3.557-3.557V12.607A3.536,3.536,0,0,0,68.1,9.049Z" transform="translate(-11.803)" fill="#454b54"/>
      <path id="Path_33269" data-name="Path 33269" d="M59.984,55a4.32,4.32,0,1,0,4.32,4.32A4.32,4.32,0,0,0,59.984,55Zm0,10.164a4.32,4.32,0,1,0,4.32,4.32A4.32,4.32,0,0,0,59.984,65.164Zm0,10.164a4.32,4.32,0,1,0,4.32,4.32A4.32,4.32,0,0,0,59.984,75.328ZM49.82,55a4.32,4.32,0,1,0,4.32,4.32A4.32,4.32,0,0,0,49.82,55Zm0,10.164a4.32,4.32,0,1,0,4.32,4.32A4.32,4.32,0,0,0,49.82,65.164Zm0,10.164a4.32,4.32,0,1,0,4.32,4.32A4.32,4.32,0,0,0,49.82,75.328ZM70.148,55a4.32,4.32,0,1,0,4.32,4.32A4.32,4.32,0,0,0,70.148,55Zm0,10.164a4.32,4.32,0,1,0,4.32,4.32A4.32,4.32,0,0,0,70.148,65.164Zm0,10.164a4.32,4.32,0,1,0,4.32,4.32A4.32,4.32,0,0,0,70.148,75.328Z" transform="translate(-18.934 -24.098)" fill="#e8edf3"/>
      <path id="Path_33270" data-name="Path 33270" d="M57.525,69.867H31.607A6.594,6.594,0,0,1,25,63.26v-.1L28.049,17.42A1.531,1.531,0,0,1,29.675,16,1.5,1.5,0,0,1,31.1,17.623L28.049,63.311a3.558,3.558,0,0,0,3.557,3.507H57.525a1.525,1.525,0,1,1,0,3.049Z" transform="translate(-8.852 -4.915)" fill="#454b54"/>
      <path id="Path_33271" data-name="Path 33271" d="M41.05,119.049H13.1a1.525,1.525,0,1,1,0-3.049H41.05a1.525,1.525,0,1,1,0,3.049Zm-32.525,0a1.384,1.384,0,0,1-1.067-.457,1.474,1.474,0,0,1,0-2.134,1.568,1.568,0,0,1,2.134,0,1.463,1.463,0,0,1,.457,1.067,1.384,1.384,0,0,1-.457,1.067A1.384,1.384,0,0,1,8.525,119.049Z" transform="translate(0 -54.097)" fill="#454b54"/>
      <path id="Path_33275" data-name="Path 33275" d="M-2580,453.883a.244.244,0,0,1-.18.068h-1.678c-.2,0-.287-.087-.287-.283v-4.731l-.064.026a1.327,1.327,0,0,1-.293.118l-.012,0a.547.547,0,0,1-.188.051l-.155.036c-.1.023-.2.047-.3.063h-.007a.311.311,0,0,0-.052.011l-.021.006h-.016a.367.367,0,0,1-.066.008l-.194.019-.116.011a.25.25,0,0,1-.2-.057.246.246,0,0,1-.076-.189q0-.821,0-1.642a.236.236,0,0,1,.239-.252,1.366,1.366,0,0,0,.277-.052l.055-.014a1.177,1.177,0,0,0,.231-.079l.007,0,.265-.117a1.284,1.284,0,0,0,.574-.438.627.627,0,0,0,.1-.232.27.27,0,0,1,.292-.242h1.655a.275.275,0,0,1,.2.059.248.248,0,0,1,.075.206v2.611c0,1.185,0,2.163,0,3.982v.214c0,.219,0,.439,0,.658A.235.235,0,0,1-2580,453.883Z" transform="translate(2628.606 -429.963)" fill="#fff"/>
    </g>
    <g id="icons8-percentage" transform="translate(3942.721 1723.643)">
      <path id="Path_33272" data-name="Path 33272" d="M23.393,9A14.393,14.393,0,1,0,37.786,23.393,14.393,14.393,0,0,0,23.393,9Z" transform="translate(-2.215 -2.215)" fill="#fff"/>
      <path id="Path_33273" data-name="Path 33273" d="M21.178,36.357A15.178,15.178,0,1,1,36.357,21.178,15.189,15.189,0,0,1,21.178,36.357Zm0-28.786A13.608,13.608,0,1,0,34.786,21.178,13.614,13.614,0,0,0,21.178,7.57Z" fill="#444b54" stroke="#454b54" stroke-width="1.5"/>
      <path id="Path_33274" data-name="Path 33274" d="M37.187,45.823a.785.785,0,0,1-.55-1.335L47.105,34.021a.777.777,0,0,1,1.1,1.1L37.737,45.588A.753.753,0,0,1,37.187,45.823ZM36.14,39.281a3.14,3.14,0,1,1,3.14-3.14A3.15,3.15,0,0,1,36.14,39.281Zm0-4.711a1.57,1.57,0,1,0,1.57,1.57A1.575,1.575,0,0,0,36.14,34.57Zm9.683,14.655a3.14,3.14,0,1,1,3.14-3.14A3.15,3.15,0,0,1,45.823,49.225Zm0-4.711a1.57,1.57,0,1,0,1.57,1.57A1.575,1.575,0,0,0,45.823,44.515ZM34.57,46.87a.785.785,0,1,0,.785.785A.785.785,0,0,0,34.57,46.87Z" transform="translate(-19.934 -19.934)" fill="#444b54" stroke="#454b54" stroke-width="1"/>
    </g>
  </g>
</svg>
