<svg id="Group_8782" data-name="Group 8782" xmlns="http://www.w3.org/2000/svg" width="34.465" height="34.467" viewBox="0 0 34.465 34.467">
  <g id="Group_8773" data-name="Group 8773">
    <g id="Group_8772" data-name="Group 8772">
      <g id="Group_8771" data-name="Group 8771">
        <g id="Group_8770" data-name="Group 8770">
          <path id="Path_5082" data-name="Path 5082" d="M378.042,628.629H365.118A10.772,10.772,0,0,0,354.347,639.4v12.926A10.772,10.772,0,0,0,365.118,663.1h12.924a10.771,10.771,0,0,0,10.771-10.771V639.4A10.771,10.771,0,0,0,378.042,628.629Zm7.541,23.7a7.548,7.548,0,0,1-7.541,7.539H365.118a7.547,7.547,0,0,1-7.539-7.539V639.4a7.548,7.548,0,0,1,7.539-7.539h12.924a7.55,7.55,0,0,1,7.541,7.539Z" transform="translate(-354.347 -628.629)" fill="#fff"/>
        </g>
      </g>
    </g>
  </g>
  <g id="Group_8777" data-name="Group 8777" transform="translate(8.616 8.618)">
    <g id="Group_8776" data-name="Group 8776">
      <g id="Group_8775" data-name="Group 8775">
        <g id="Group_8774" data-name="Group 8774">
          <path id="Path_5083" data-name="Path 5083" d="M367.679,633.344a8.617,8.617,0,1,0,8.616,8.616A8.617,8.617,0,0,0,367.679,633.344Zm0,14a5.385,5.385,0,1,1,5.384-5.386A5.395,5.395,0,0,1,367.679,647.346Z" transform="translate(-359.061 -633.344)" fill="#fff"/>
        </g>
      </g>
    </g>
  </g>
  <g id="Group_8781" data-name="Group 8781" transform="translate(25.348 6.823)">
    <g id="Group_8780" data-name="Group 8780">
      <g id="Group_8779" data-name="Group 8779">
        <g id="Group_8778" data-name="Group 8778">
          <circle id="Ellipse_1333" data-name="Ellipse 1333" cx="1.148" cy="1.148" r="1.148" fill="#fff"/>
        </g>
      </g>
    </g>
  </g>
</svg>
