<svg id="Group_8787" data-name="Group 8787" xmlns="http://www.w3.org/2000/svg" width="42.745" height="35.33" viewBox="0 0 42.745 35.33">
  <g id="Group_8786" data-name="Group 8786">
    <g id="Group_8785" data-name="Group 8785">
      <g id="Group_8784" data-name="Group 8784">
        <g id="Group_8783" data-name="Group 8783">
          <path id="Path_5084" data-name="Path 5084" d="M328.077,663.723a24.489,24.489,0,0,1-13.3-3.893,1.6,1.6,0,0,1,1.067-2.93,13.8,13.8,0,0,0,1.74.1,14.82,14.82,0,0,0,5.949-1.254,9.819,9.819,0,0,1-4.993-5.752,1.6,1.6,0,0,1,.23-1.444,9.736,9.736,0,0,1-3.144-7.15,1.673,1.673,0,0,1,.784-1.422,1.827,1.827,0,0,1,.269-.13,9.721,9.721,0,0,1,.333-9.172,1.593,1.593,0,0,1,1.256-.8,1.612,1.612,0,0,1,1.369.583,21.479,21.479,0,0,0,13.684,7.72V638.1a9.705,9.705,0,0,1,16.111-7.294,14.52,14.52,0,0,0,3.835-1.585,1.6,1.6,0,0,1,2.343,1.857,9.945,9.945,0,0,1-.433,1.117h.013a1.6,1.6,0,0,1,1.327,2.491,17.9,17.9,0,0,1-3.763,4.1c0,.09,0,.179,0,.269C352.751,651.181,343.523,663.723,328.077,663.723Zm-6.1-4.076a21.554,21.554,0,0,0,6.1.877c13.443,0,21.476-10.917,21.476-21.472,0-.331-.011-.651-.027-.967a1.6,1.6,0,0,1,.673-1.384l.062-.046a2.565,2.565,0,0,0-2.486-3,6.507,6.507,0,0,0-11.259,4.449,6.73,6.73,0,0,0,.148,1.5,1.6,1.6,0,0,1-.336,1.382,1.52,1.52,0,0,1-1.3.568,24.616,24.616,0,0,1-16.053-7.068,6.521,6.521,0,0,0,2.8,6.494,1.6,1.6,0,0,1-.888,2.93h-.027a9.13,9.13,0,0,1-1.586-.17,6.521,6.521,0,0,0,4.767,4.061,1.6,1.6,0,0,1,.1,3.109,9.209,9.209,0,0,1-1.369.26,6.555,6.555,0,0,0,4.895,2.376,1.6,1.6,0,0,1,.95,2.859A17.968,17.968,0,0,1,321.972,659.647Z" transform="translate(-314.04 -628.393)" fill="#fff"/>
        </g>
      </g>
    </g>
  </g>
</svg>
