<svg id="Group_8794" data-name="Group 8794" xmlns="http://www.w3.org/2000/svg" width="34.295" height="34.296" viewBox="0 0 34.295 34.296">
  <g id="Group_8793" data-name="Group 8793">
    <g id="Group_8792" data-name="Group 8792">
      <path id="Path_5086" data-name="Path 5086" d="M441.2,657.009h-4.688V641.872H441.2Zm.468-19.96a2.746,2.746,0,1,0-2.745,2.747A2.747,2.747,0,0,0,441.664,637.049Zm17.08,11.633c0-4.065-.857-7.079-5.606-7.079a4.864,4.864,0,0,0-4.436,2.328H448.7v-2.06h-4.555v15.137H448.7v-7.516c0-1.968.5-3.875,2.941-3.875,2.407,0,2.486,2.25,2.486,4v7.389h4.62Zm6.03,10.27V632.7a4.025,4.025,0,0,0-4.019-4.019H434.5a4.024,4.024,0,0,0-4.019,4.019v26.257a4.023,4.023,0,0,0,4.019,4.019h26.257A4.024,4.024,0,0,0,464.773,658.952Zm-4.019-27.6a1.342,1.342,0,0,1,1.34,1.34v26.257a1.342,1.342,0,0,1-1.34,1.34H434.5a1.342,1.342,0,0,1-1.34-1.34V632.7a1.342,1.342,0,0,1,1.34-1.34Z" transform="translate(-430.478 -628.676)" fill="#fff"/>
    </g>
  </g>
</svg>
