<svg id="Group_8791" data-name="Group 8791" xmlns="http://www.w3.org/2000/svg" width="33.66" height="33.66" viewBox="0 0 33.66 33.66">
  <g id="Group_8790" data-name="Group 8790">
    <g id="Group_8789" data-name="Group 8789">
      <g id="Group_8788" data-name="Group 8788">
        <path id="Path_5085" data-name="Path 5085" d="M422.323,628.85H396.554a3.95,3.95,0,0,0-3.944,3.946v25.769a3.949,3.949,0,0,0,3.944,3.944h25.769a3.95,3.95,0,0,0,3.946-3.944V632.8A3.952,3.952,0,0,0,422.323,628.85Zm1.316,29.715a1.316,1.316,0,0,1-1.316,1.314H414.83V649.163h4.063l.671-4.076H414.83v-2.826a1.939,1.939,0,0,1,1.972-1.972h2.7v-4.076h-2.7a6.048,6.048,0,0,0-6.046,6.059v2.815H406.81v4.076h3.946v10.716h-14.2a1.314,1.314,0,0,1-1.314-1.314V632.8a1.316,1.316,0,0,1,1.314-1.316h25.769a1.318,1.318,0,0,1,1.316,1.316Z" transform="translate(-392.61 -628.85)" fill="#fff"/>
      </g>
    </g>
  </g>
</svg>
