<svg xmlns="http://www.w3.org/2000/svg" width="44.851" height="32.64" viewBox="0 0 44.851 32.64">
  <g id="Group_8912" data-name="Group 8912" transform="translate(-257.671 -73.846)">
    <path id="Path_5144" data-name="Path 5144" d="M277.423,105.736q-1.106,0-2.207-.016c-.49-.007-.98-.012-1.47-.017-1.563-.015-3.179-.03-4.777-.134a20.57,20.57,0,0,1-6.229-1.092c-3.925-1.594-4.113-6.29-4.237-9.4-.1-2.379-.092-4.741-.077-7.361,0-.294,0-.593,0-.9,0-2.573,0-5.489,1.123-7.909,1.478-3.172,4.618-3.677,7.708-3.923,2.32-.185,4.676-.237,6.953-.288,4.421-.1,8.991-.2,13.512-.028,2.409.092,4.6.252,6.69.489,1.834.208,3.906.569,5.287,2.242,1.478,1.789,1.77,4.15,1.959,6.615.037.484.064.98.082,1.516.041,1.2.032,2.409.024,3.58,0,.546-.008,1.091-.007,1.636,0,.38,0,.76.006,1.14a40.036,40.036,0,0,1-.26,6c-.387,2.687-1.166,5.564-4.014,6.536a29.256,29.256,0,0,1-8.98,1.116l-.253.005q-1.478.029-2.957.065C282.719,105.675,280.067,105.736,277.423,105.736ZM282.387,76.2c-2.735,0-5.464.061-8.138.12-2.257.05-4.589.1-6.863.283-2.827.225-5.257.606-6.37,2.993-.976,2.094-.973,4.819-.972,7.224,0,.307,0,.61,0,.907-.014,2.6-.018,4.943.076,7.287.121,3.012.271,6.761,3.229,7.963a19.322,19.322,0,0,0,5.725.976c1.553.1,3.146.116,4.687.131.493,0,.985.009,1.478.017,3.337.05,6.737-.029,10.024-.105q1.481-.034,2.962-.065l.254,0a28.053,28.053,0,0,0,8.489-1.029c2.016-.688,2.6-2.922,2.935-5.235a38.85,38.85,0,0,0,.243-5.758c0-.383-.006-.767-.006-1.149,0-.55,0-1.1.007-1.651.008-1.155.017-2.348-.023-3.513h0c-.018-.513-.043-.987-.079-1.448-.168-2.2-.417-4.284-1.593-5.707-1-1.208-2.632-1.484-4.222-1.664-2.052-.232-4.2-.389-6.57-.48C285.911,76.227,284.148,76.2,282.387,76.2Z" fill="#fff" stroke="#fff" stroke-width="1.5"/>
    <path id="Path_5145" data-name="Path 5145" d="M344.691,120.646,333.884,114.3V127Z" transform="translate(-58.017 -30.533)" fill="#fff"/>
  </g>
</svg>
