<svg xmlns="http://www.w3.org/2000/svg" width="306" height="128" viewBox="0 0 306 128">
  <g id="Group_8929" data-name="Group 8929" transform="translate(-5402 -5689)">
    <g id="Group_8928" data-name="Group 8928">
      <path id="Path_5170" data-name="Path 5170" d="M12,0H294a12,12,0,0,1,12,12V116a12,12,0,0,1-12,12H12A12,12,0,0,1,0,116V12A12,12,0,0,1,12,0Z" transform="translate(5402 5689)" fill="#696969"/>
      <g id="Group_8927" data-name="Group 8927" transform="translate(5340.768 5346.59)">
        <path id="Path_5171" data-name="Path 5171" d="M163.948,404.864c4.656-3.738,8.4-3.773,12.459.009,1.27,1.184,1.442.046,2-.425,3.224-2.719,7.707-3.166,10.811-1.023a6.6,6.6,0,0,1,2.936,5.609c.064,4.991.03,9.983.076,14.975.011,1.147-.146,1.854-1.589,1.863s-1.6-.684-1.589-1.84q.05-6.739-.007-13.478c-.037-3.825-1.745-5.895-4.827-5.981a5.7,5.7,0,0,0-6.044,5.727c-.186,4.385-.062,8.784-.112,13.176-.011,1,.443,2.263-1.4,2.341-1.94.081-1.721-1.15-1.72-2.358,0-4.193.057-8.387-.02-12.579-.079-4.271-1.8-6.3-5.142-6.3-3.5,0-5.756,2.509-5.8,6.558-.046,3.993.044,7.989-.051,11.98-.022.9.8,2.277-.944,2.666-1.9.423-1.911-1.073-2.241-2.577a8.825,8.825,0,0,1-6.532,3.094c-5.259.288-8.37-2.5-8.468-7.756-.085-4.591-.016-9.185-.026-13.778,0-1.12-.159-2.179,1.587-2.161s1.551,1.125,1.551,2.217c0,4.193-.02,8.387.011,12.579.032,4.273,1.634,6.2,5.112,6.262,4.043.066,6.743-2.286,6.875-6.274.139-4.189.024-8.385.076-12.578.01-.869-.5-2.046,1.19-2.2C163.79,402.461,163.8,403.546,163.948,404.864Z" transform="translate(-22.711 -6.891)" fill="#fff"/>
        <path id="Path_5172" data-name="Path 5172" d="M89.024,401.656q0-7.34,0-14.68c0-1.085-.248-2.143,1.55-2.144,1.677,0,1.686.852,1.675,2.052-.033,3.595.055,7.192-.04,10.784-.043,1.6.3,2.317,2.115,2.277,5.192-.115,10.389-.094,15.582-.008,1.546.026,2.1-.39,2.053-2-.108-3.691,0-7.389-.049-11.084-.016-1.262.12-2.021,1.73-2.02s1.739.735,1.735,2.007q-.047,14.979-.007,29.959c0,1.172.058,2.144-1.64,2.139-1.582,0-1.775-.772-1.761-2.05.046-3.994-.062-7.991.056-11.983.051-1.724-.51-2.2-2.2-2.165-5.192.1-10.389.089-15.581.006-1.584-.026-2.071.5-2.034,2.057.091,3.793.079,7.59,0,11.383-.023,1.09.783,2.713-1.528,2.791s-1.626-1.516-1.637-2.641C89,411.443,89.024,406.55,89.024,401.656Z" transform="translate(0 0)" fill="#fff"/>
        <path id="Path_5173" data-name="Path 5173" d="M356.987,405.491a10.529,10.529,0,0,0,.109-1.481c-.095-1.345.747-1.37,1.737-1.378,1.182-.01,1.225.726,1.219,1.582-.047,7.291.1,14.589-.194,21.869-.2,4.911-3.219,7.864-7.995,8.679-4.622.788-9.286-1.117-10.855-4.541-.283-.619-1.18-1.577-.273-2.079a2.136,2.136,0,0,1,2.9.594c2.485,3.165,5.666,4.166,9.1,3.048,2.765-.9,4.153-3.374,4.218-7.527.01-.6,0-1.193,0-2.2-2.363,2.121-4.681,3.6-7.759,3.5a9.467,9.467,0,0,1-7.546-3.624c-3.745-4.7-3.352-12.964.8-17.137C346.312,400.916,351.432,401.127,356.987,405.491Z" transform="translate(-100.116 -6.888)" fill="#fff"/>
        <path id="Path_5174" data-name="Path 5174" d="M237.809,404.884c4.882-3.8,7.777-3.8,12.651.154,1.2.97,1.322-.089,1.784-.515a8.772,8.772,0,0,1,7.747-2.295c3.571.594,5.85,2.794,6.021,6.408.245,5.183.106,10.383.17,15.576.014,1.126-.367,1.572-1.549,1.6-1.422.037-1.622-.66-1.611-1.839q.061-6.442,0-12.885c-.041-4.355-1.675-6.47-4.934-6.518-3.63-.053-5.963,2.47-6.031,6.683-.068,4.094-.013,8.191-.027,12.286,0,1.067.27,2.223-1.509,2.281-1.9.063-1.755-1.087-1.751-2.334.016-4.395.047-8.79-.016-13.184-.053-3.648-1.71-5.577-4.744-5.734a5.638,5.638,0,0,0-6.064,5.661c-.149,4.39-.038,8.788-.05,13.183,0,1.158.34,2.449-1.653,2.407-1.865-.04-1.429-1.28-1.432-2.287-.022-6.192-.036-12.386.02-18.578.008-.823-.664-2.083,1.014-2.319S237.881,403.408,237.809,404.884Z" transform="translate(-58.34 -6.892)" fill="#fff"/>
        <path id="Path_5175" data-name="Path 5175" d="M388.82,399.094c3.589-3.831,7.351-4.738,11.441-3.218,4.146,1.541,6.036,5.013,6.559,9.249a17.83,17.83,0,0,1,.052,4.174c-.494,4.338-2.329,7.909-6.65,9.484a9.686,9.686,0,0,1-11.112-2.624c-.572.2-.525.632-.5.994.077,1.212-.285,1.847-1.679,1.777-1.423-.071-1.239-1.007-1.239-1.877q-.009-15.258-.01-30.516c0-1.018.1-1.684,1.42-1.674,1.261.01,1.767.348,1.745,1.683C388.776,390.495,388.82,394.447,388.82,399.094Z" transform="translate(-118.769 -0.012)" fill="#fff"/>
        <path id="Path_5176" data-name="Path 5176" d="M489.582,415.875c-4.406,4.042-9.459,4.713-13.537,1.826-4.381-3.1-5.995-10.82-3.42-16.358,3.162-6.8,10.825-8.144,17.079-2.47,0-4.12-.036-7.821.023-11.521.016-1.023-.645-2.474,1.473-2.5,2.137-.025,1.487,1.435,1.49,2.454.036,9.373.061,18.748-.031,28.12-.011,1.146,1.044,2.984-1.015,3.423C489.019,419.409,490.356,416.826,489.582,415.875Z" transform="translate(-153.078 -0.008)" fill="#fff"/>
        <path id="Path_5177" data-name="Path 5177" d="M301.32,405.643a9.462,9.462,0,0,1,6.658-3.5c5.155-.525,8.864,2.41,9.1,7.567.221,4.777.04,9.572.1,14.359.017,1.289-.441,1.752-1.732,1.764-1.355.013-1.394-.779-1.393-1.74.005-4.089.048-8.179-.01-12.267-.07-4.936-2.11-7.362-5.963-7.244-3.929.121-6.4,2.964-6.414,7.4-.011,3.79.02,7.581-.016,11.37-.01,1.083.512,2.469-1.544,2.49-1.942.02-1.7-1.195-1.7-2.387,0-6.084-.029-12.169.032-18.252.009-.921-.682-2.292,1.14-2.56C301.592,402.349,301.382,403.831,301.32,405.643Z" transform="translate(-83.804 -6.904)" fill="#fff"/>
        <path id="Path_5178" data-name="Path 5178" d="M450.685,406.036a8.446,8.446,0,0,1,7.338-3.8c1.21,0,2.066.244,2.045,1.838-.022,1.692-.921,1.264-1.945,1.211-4.437-.226-7.169,1.958-7.638,6.564-.372,3.66-.154,7.377-.311,11.064-.05,1.171.861,3.029-1.653,2.969-2.289-.054-1.474-1.751-1.487-2.837-.07-5.69-.11-11.382.034-17.069.029-1.139-1.276-3.2,1.48-3.356C451.449,402.464,449.5,404.885,450.685,406.036Z" transform="translate(-143.227 -6.968)" fill="#fff"/>
        <path id="Path_5179" data-name="Path 5179" d="M433.688,414.743c0,3.2-.028,6.392.014,9.587.016,1.169-.194,1.87-1.614,1.866-1.438,0-1.6-.757-1.6-1.9q.033-9.736,0-19.473c0-1.163.212-1.858,1.626-1.859,1.449,0,1.6.752,1.586,1.891C433.667,408.151,433.689,411.447,433.688,414.743Z" transform="translate(-136.705 -7.258)" fill="#fff"/>
        <path id="Path_5180" data-name="Path 5180" d="M433.86,389.154a2.29,2.29,0,0,1-2.323,2.3,2.23,2.23,0,0,1-2.46-2.418,2.164,2.164,0,0,1,2.29-2.272A2.29,2.29,0,0,1,433.86,389.154Z" transform="translate(-136.14 -0.774)" fill="#fff"/>
        <path id="Path_5181" data-name="Path 5181" d="M302.029,388.824a2.4,2.4,0,0,1-2.416,2.619,2.237,2.237,0,0,1-2.42-2.4,2.174,2.174,0,0,1,2.215-2.283A2.41,2.41,0,0,1,302.029,388.824Z" transform="translate(-83.351 -0.769)" fill="#fff"/>
        <path id="Path_5182" data-name="Path 5182" d="M359.008,414.922c.017,3.239-.594,5.406-2.086,7.28a6.47,6.47,0,0,1-5.184,2.549,6.3,6.3,0,0,1-6.283-3.771,11.748,11.748,0,0,1,.627-11.73c1.574-2.448,4.118-3.029,6.872-2.6C356.627,407.229,359.037,410.925,359.008,414.922Z" transform="translate(-102.162 -8.682)" fill="#696969"/>
        <path id="Path_5183" data-name="Path 5183" d="M390.68,415.72c.032-5.42,2.878-8.976,7.359-9.188a8.072,8.072,0,0,1,1.192.022c4.33.444,7.125,5.118,6.49,10.841-.6,5.384-3.972,8.549-8.49,7.961C393.142,424.823,390.647,421.154,390.68,415.72Z" transform="translate(-120.771 -8.681)" fill="#696969"/>
        <path id="Path_5184" data-name="Path 5184" d="M476.983,416.141c-.013-7.719,5.23-11.968,10.751-8.9,4.1,2.283,4.547,6.291,4.2,10.426-.382,4.58-3.57,7.651-7.678,7.626-3.982-.025-6.754-2.97-7.2-7.665C477,417.037,477,416.438,476.983,416.141Z" transform="translate(-155.315 -8.569)" fill="#696969"/>
      </g>
    </g>
  </g>
</svg>
