<svg id="Group_2971" data-name="Group 2971" xmlns="http://www.w3.org/2000/svg" width="77.777" height="74.016" viewBox="0 0 77.777 74.016">
  <path id="Path_2979" data-name="Path 2979" d="M-269.816,427.788h-34.426a6.394,6.394,0,0,0-6.375,6.375V491.54a6.394,6.394,0,0,0,6.375,6.375h40.8a6.394,6.394,0,0,0,6.375-6.375v-51A12.788,12.788,0,0,0-269.816,427.788Z" transform="translate(332.93 -425.875)" fill="#f0ecdf"/>
  <path id="Path_2980" data-name="Path 2980" d="M-282.589,469.239h-18.488a1.878,1.878,0,0,1-1.912-1.913,1.879,1.879,0,0,1,1.912-1.913h18.488a1.878,1.878,0,0,1,1.913,1.913A1.878,1.878,0,0,1-282.589,469.239Zm9.435-19.125H-301.2a1.878,1.878,0,0,1-1.913-1.913,1.878,1.878,0,0,1,1.913-1.912h28.051a1.878,1.878,0,0,1,1.913,1.912A1.878,1.878,0,0,1-273.154,450.113Zm0,9.563H-301.2a1.879,1.879,0,0,1-1.913-1.913,1.878,1.878,0,0,1,1.913-1.912h28.051a1.878,1.878,0,0,1,1.913,1.912A1.879,1.879,0,0,1-273.154,459.676Zm.128,9.563h-.128a1.878,1.878,0,0,1-1.912-1.913,1.879,1.879,0,0,1,1.912-1.913h.128a1.878,1.878,0,0,1,1.912,1.913A1.878,1.878,0,0,1-273.026,469.239Z" transform="translate(334.993 -420.787)" fill="#71c2ff"/>
  <path id="Path_2981" data-name="Path 2981" d="M-310.177,486.755a.809.809,0,0,1-.383-.064.908.908,0,0,1-.382-.127,1.4,1.4,0,0,1-.319-.191,1.117,1.117,0,0,1-.319-.255l-.255-.255c-.064-.128-.128-.191-.191-.319s-.064-.255-.128-.382c0-.128-.064-.255-.064-.383a1.737,1.737,0,0,1,.574-1.339,1.891,1.891,0,0,1,1.721-.51.908.908,0,0,1,.383.128,1.4,1.4,0,0,1,.319.191,1.119,1.119,0,0,1,.319.255,1.835,1.835,0,0,1,.574,1.339,1.736,1.736,0,0,1-.574,1.339,1.378,1.378,0,0,1-.319.255c-.127.064-.191.128-.319.191s-.255.064-.383.127Zm9.308,0a1.683,1.683,0,0,1-1.211-.446,1.856,1.856,0,0,1-.191-2.678l1.849-2.167a4.233,4.233,0,0,1,3.7-1.976,4.054,4.054,0,0,1,3.443,2.231l.574,1.084c0,.064.064.127.191.127s.191-.064.191-.127l1.339-4.271a4.5,4.5,0,0,1,3.953-3.188,4.466,4.466,0,0,1,4.462,2.422l1.913,3.634a2.456,2.456,0,0,0,1.785,1.275,2.394,2.394,0,0,0,2.1-.7,1.848,1.848,0,0,1,2.678,0,1.9,1.9,0,0,1,0,2.678,6.384,6.384,0,0,1-5.355,1.785,6.239,6.239,0,0,1-4.59-3.251l-1.913-3.634a.671.671,0,0,0-.765-.383.7.7,0,0,0-.638.51l-1.339,4.271a3.958,3.958,0,0,1-3.506,2.805,4.1,4.1,0,0,1-3.953-2.231l-.574-1.084c-.064-.127-.128-.127-.128-.127a.557.557,0,0,0-.382.255c-.064.064-.128.191-.191.255l-1.913,2.231A2.142,2.142,0,0,1-300.869,486.755Z" transform="translate(332.49 -412.803)" fill="#444b54"/>
  <path id="Path_2982" data-name="Path 2982" d="M-265.867,440.538h-6.375a6.394,6.394,0,0,1-6.375-6.375v-6.375h0a12.788,12.788,0,0,1,12.75,12.75Z" transform="translate(341.731 -425.875)" fill="#fff"/>
  <path id="Path_2983" data-name="Path 2983" d="M-265.454,442.863h0a1.878,1.878,0,0,1-1.913-1.913,10.811,10.811,0,0,0-3.187-7.65,10.81,10.81,0,0,0-7.65-3.188,1.878,1.878,0,0,1-1.913-1.913,1.878,1.878,0,0,1,1.913-1.913,14.513,14.513,0,0,1,10.392,4.335,14.717,14.717,0,0,1,4.271,10.392A1.906,1.906,0,0,1-265.454,442.863Z" transform="translate(341.319 -426.288)" fill="#71c2ff"/>
  <g id="Group_2968" data-name="Group 2968" transform="translate(66.174 21.038)">
    <path id="Path_2984" data-name="Path 2984" d="M-274.3,495.7a1.878,1.878,0,0,1-1.913-1.912,1.879,1.879,0,0,1,1.913-1.913c3.443,0,5.738-1.785,5.738-4.463l.064-42.714a1.878,1.878,0,0,1,1.912-1.912h0a1.878,1.878,0,0,1,1.913,1.912l-.064,42.714C-264.742,492.2-268.758,495.7-274.3,495.7Z" transform="translate(276.217 -442.788)" fill="#71c2ff"/>
  </g>
  <g id="Group_2969" data-name="Group 2969" transform="translate(26.776 0)">
    <path id="Path_2985" data-name="Path 2985" d="M-258.028,442.863H-264.4a8.271,8.271,0,0,1-8.288-8.288v-4.463H-305.2a1.878,1.878,0,0,1-1.913-1.913,1.878,1.878,0,0,1,1.913-1.913h34.426a1.878,1.878,0,0,1,1.913,1.913v6.375a4.435,4.435,0,0,0,4.463,4.463h6.375a1.878,1.878,0,0,1,1.913,1.913A1.878,1.878,0,0,1-258.028,442.863Z" transform="translate(307.117 -426.288)" fill="#71c2ff"/>
  </g>
  <g id="Group_2970" data-name="Group 2970" transform="translate(0 0)">
    <path id="Path_2986" data-name="Path 2986" d="M-316.544,490.52l-3.7,7.395-3.7-7.395a24.975,24.975,0,0,1-2.678-11.348V434.163a6.394,6.394,0,0,1,6.375-6.375h0a6.394,6.394,0,0,1,6.375,6.375v45.009A24.975,24.975,0,0,1-316.544,490.52Z" transform="translate(328.53 -425.875)" fill="#fff"/>
    <path id="Path_2987" data-name="Path 2987" d="M-319.2,473.059a1.878,1.878,0,0,1-1.913-1.912V435.7a1.878,1.878,0,0,1,1.913-1.913,1.878,1.878,0,0,1,1.913,1.913v35.446A1.918,1.918,0,0,1-319.2,473.059Z" transform="translate(330.042 -424.225)" fill="#71c2ff"/>
    <path id="Path_2988" data-name="Path 2988" d="M-311.542,435.277v-.7a8.271,8.271,0,0,0-8.288-8.288,8.271,8.271,0,0,0-8.288,8.288v45.009a28.059,28.059,0,0,0,2.869,12.24l3.7,7.4a1.92,1.92,0,0,0,1.721,1.084,1.815,1.815,0,0,0,1.721-1.084l3.7-7.4a27.2,27.2,0,0,0,2.869-12.24V439.1a4.461,4.461,0,0,1,3.825,4.4v17.213a1.878,1.878,0,0,0,1.912,1.913,1.878,1.878,0,0,0,1.913-1.913V443.5A8.272,8.272,0,0,0-311.542,435.277Zm-3.825,44.307a24.067,24.067,0,0,1-2.486,10.519l-1.976,3.953-1.977-3.953a24.069,24.069,0,0,1-2.486-10.519V434.576a4.435,4.435,0,0,1,4.463-4.463,4.435,4.435,0,0,1,4.462,4.463Z" transform="translate(328.117 -426.288)" fill="#444b54"/>
  </g>
</svg>
