<svg xmlns="http://www.w3.org/2000/svg" width="69.601" height="69.67" viewBox="0 0 69.601 69.67">
  <g id="Group_8857" data-name="Group 8857" transform="translate(-153 -870.064)">
    <path id="Path_3208" data-name="Path 3208" d="M67.295,45.168a3.908,3.908,0,0,0-5.474.166c-8.239,8.239-15.1,10.893-23.444,9.842-3.428-.442-5.142-1.438-8.239-2.82a13.951,13.951,0,0,1-1.769-1,3.321,3.321,0,0,1,0-5.751L36.662,40.8a4.51,4.51,0,0,0,1.88-5.861,4.431,4.431,0,0,0-6.193-1.88L13.218,44.117H7.688V42.459h0V60.705s13.27,5.529,24.55,5.529c15.15,0,27.7-7.631,35.056-15.427A4.056,4.056,0,0,0,67.295,45.168ZM65.746,22a11.059,11.059,0,1,1-22.117,0H65.746M27.041,22A11.059,11.059,0,0,1,4.923,22" transform="translate(152.5 871.84)" fill="#f7ebde"/>
    <path id="Path_3209" data-name="Path 3209" d="M66.975,23.5,55.916,1.44A1.665,1.665,0,0,0,54.423.5H15.718a1.63,1.63,0,0,0-1.493.94L7.313,15.263a1.644,1.644,0,0,0,2.931,1.493L15.718,5.863l8.349,16.754H4.659A1.629,1.629,0,0,0,3,24.276a12.718,12.718,0,1,0,25.435,0h0a1.766,1.766,0,0,0-.166-.774L18.427,3.818H33.411V27.041a1.659,1.659,0,1,0,3.318,0V3.818H51.714l-5.7,11.446a1.644,1.644,0,0,0,2.931,1.493L54.423,5.863l8.349,16.754H43.364a1.629,1.629,0,0,0-1.659,1.659,12.718,12.718,0,0,0,25.435,0h0A1.766,1.766,0,0,0,66.975,23.5ZM15.718,33.676a9.389,9.389,0,0,1-9.234-7.741H25.007A9.493,9.493,0,0,1,15.718,33.676Zm38.705,0a9.389,9.389,0,0,1-9.234-7.741H63.712A9.493,9.493,0,0,1,54.423,33.676Z" transform="translate(152.765 869.564)" fill="#71c2ff"/>
    <path id="Path_3210" data-name="Path 3210" d="M68.456,43.109a5.613,5.613,0,0,0-7.8.166c-7.686,7.686-14.1,10.4-22.062,9.4a18.178,18.178,0,0,1-6.469-2.1c-.387-.166-.829-.387-1.272-.608-.111-.055-.442-.221-1.659-.885a1.661,1.661,0,0,1,0-2.875l8.349-4.811a6.158,6.158,0,0,0,2.543-8.018,6,6,0,0,0-3.7-3.152,6.1,6.1,0,0,0-4.811.553L12.443,41.837A1.66,1.66,0,1,0,14.1,44.712L33.234,33.653a2.8,2.8,0,0,1,2.212-.276A2.669,2.669,0,0,1,37.1,34.815a2.859,2.859,0,0,1-1.216,3.7L27.539,43.33a4.982,4.982,0,0,0,0,8.626c1.272.719,1.714.94,1.935,1.051.442.221.885.387,1.272.608a21.545,21.545,0,0,0,7.465,2.378c9.013,1.106,16.422-1.935,24.827-10.34a2.257,2.257,0,0,1,3.152-.111,2.392,2.392,0,0,1-.055,3.262C62.816,52.287,50.6,63.733,32.238,63.733a52.555,52.555,0,0,1-11.421-1.49,93.3,93.3,0,0,1-11.47-3.487V41.616a1.629,1.629,0,0,0-1.659-1.659H2.159a1.659,1.659,0,0,0,0,3.318H6.029v18.8H2.159a1.659,1.659,0,1,0,0,3.318H7.688a1.629,1.629,0,0,0,1.659-1.659V62.3c4.368,1.6,14.1,4.755,22.892,4.755a50.958,50.958,0,0,0,36.273-15.98A5.708,5.708,0,0,0,68.456,43.109Z" transform="translate(152.5 872.683)" fill="#444b54"/>
  </g>
</svg>
