<svg xmlns="http://www.w3.org/2000/svg" width="72.176" height="72.176" viewBox="0 0 72.176 72.176">
  <g id="Group_8858" data-name="Group 8858" transform="translate(-153 -2167)">
    <path id="Path_3220" data-name="Path 3220" d="M12.962,67.346H63.174A5.709,5.709,0,0,0,68.9,61.621V27.4H7.3V61.621A5.618,5.618,0,0,0,12.962,67.346Z" transform="translate(151.051 2169.964)" fill="#fff"/>
    <path id="Path_3221" data-name="Path 3221" d="M11.718,67.346H65.166A3.744,3.744,0,0,0,68.9,63.612V27.4H7.3V62.866c-.062,3.173,1.244,4.48,4.418,4.48" transform="translate(151.051 2169.964)" fill="#8891fc" opacity="0.335"/>
    <path id="Path_3222" data-name="Path 3222" d="M68.836,32H7.3v3.858l55.812,3.733V60.559a5.754,5.754,0,0,1-4.853,5.662h5.724a5.754,5.754,0,0,0,4.853-5.662V32" transform="translate(151.051 2171.088)" fill="#e7e7e7"/>
    <path id="Path_3223" data-name="Path 3223" d="M4.5,35.361H72.943V23.974a5.709,5.709,0,0,0-5.724-5.724H10.224A5.709,5.709,0,0,0,4.5,23.974V35.361" transform="translate(150.367 2167.727)" fill="#71c2ff"/>
    <path id="Path_3224" data-name="Path 3224" d="M56.012,18.25H50.35a5.79,5.79,0,0,1,5.724,5.724V35.361h5.662V23.974a5.709,5.709,0,0,0-5.724-5.724" transform="translate(161.573 2167.727)" fill="#0093f7"/>
    <path id="Path_3225" data-name="Path 3225" d="M66.353,68.455H10.479A4.727,4.727,0,0,1,5.75,63.726V32.367a1.867,1.867,0,0,1,3.733,0V63.726a.983.983,0,0,0,1,1H66.353a.983.983,0,0,0,1-1V32.367a1.867,1.867,0,0,1,3.733,0V63.726A4.727,4.727,0,0,1,66.353,68.455Z" transform="translate(150.672 2170.721)" fill="#71c2fd"/>
    <path id="Path_3227" data-name="Path 3227" d="M40.953,23.844H32.367A1.833,1.833,0,0,1,30.5,21.977v-8.4a10.454,10.454,0,1,1,20.906,0A10.357,10.357,0,0,1,40.953,23.844Zm-6.72-3.733h6.72a6.575,6.575,0,0,0,6.72-6.533,6.721,6.721,0,1,0-13.44,0Z" transform="translate(156.721 2164)" fill="#71c2fd"/>
    <path id="Path_3228" data-name="Path 3228" d="M35.74,23.844H27.153A10.24,10.24,0,0,1,16.7,13.578a10.454,10.454,0,1,1,20.906,0v8.4A1.833,1.833,0,0,1,35.74,23.844ZM27.153,6.733a6.8,6.8,0,0,0-6.72,6.844,6.537,6.537,0,0,0,6.72,6.533h6.72V13.578A6.759,6.759,0,0,0,27.153,6.733Z" transform="translate(153.348 2164)" fill="#71c2fd"/>
    <path id="Path_3229" data-name="Path 3229" d="M32.491,71.815a1.833,1.833,0,0,1-1.867-1.867L30.5,18.617a1.833,1.833,0,0,1,1.867-1.867h0a1.833,1.833,0,0,1,1.867,1.867l.124,51.332a1.872,1.872,0,0,1-1.867,1.867Z" transform="translate(156.721 2167.361)" fill="#71c2fd"/>
    <path id="Path_3226" data-name="Path 3226" d="M73.309,37.594H4.867A1.833,1.833,0,0,1,3,35.727V24.839a8.073,8.073,0,0,1,8.089-8.089h56a8.073,8.073,0,0,1,8.089,8.089V35.727A1.833,1.833,0,0,1,73.309,37.594ZM6.733,33.861h64.71V24.839a4.329,4.329,0,0,0-4.355-4.355h-56a4.329,4.329,0,0,0-4.355,4.355Z" transform="translate(150 2167.361)" fill="#464c55"/>
    <path id="Path_5162" data-name="Path 5162" d="M188.4,2185.977v17.542" transform="translate(1)" fill="none" stroke="#464c55" stroke-width="4"/>
  </g>
</svg>
