<svg xmlns="http://www.w3.org/2000/svg" width="306" height="128" viewBox="0 0 306 128">
  <g id="Group_9144" data-name="Group 9144" transform="translate(-746 -7833)">
    <g id="Group_9143" data-name="Group 9143">
      <rect id="Rectangle_3009" data-name="Rectangle 3009" width="306" height="128" rx="12" transform="translate(746 7833)" fill="#696969"/>
    </g>
    <g id="Master" transform="translate(768.25 7879.075)">
      <g id="Sequoia-1b-Home" transform="translate(0.75 0.925)">
        <g id="Nav">
          <g id="NAV-2" data-name="NAV">
            <g id="Group">
              <g id="Imported-Layers">
                <path id="Fill-1" d="M64.717,34.96l-3.333-5.789c1.579-2.982,1.579-6.491,1.579-11.051,0-5.789,0-10-3.333-13.51A11.768,11.768,0,0,0,50.507.925a12.408,12.408,0,0,0-9.123,3.684c-3.333,3.335-3.333,7.544-3.333,13.51,0,5.788-.175,10,3.333,13.509a12.027,12.027,0,0,0,9.123,3.682,13.516,13.516,0,0,0,2.807-.351Zm-18.6-7.367c-1.228-1.4-1.579-2.982-1.579-9.474s.351-8.07,1.579-9.475a5.93,5.93,0,0,1,8.421,0c1.228,1.4,1.579,2.982,1.579,9.475s-.351,8.068-1.579,9.474a5.93,5.93,0,0,1-8.421,0Z" transform="translate(27.388 -0.925)" fill="#fff"/>
                <path id="Fill-2" d="M97.15,1.125h6.491V34.809H97.15Z" transform="translate(71.972 -0.774)" fill="#fff"/>
                <path id="Fill-3" d="M13.031,35.235c-5.088,0-8.947-1.051-12.281-4.386l4.211-4.211c2.105,2.105,5.088,2.807,8.07,2.807,3.86,0,5.965-1.4,5.965-4.211a3.7,3.7,0,0,0-1.053-2.807c-.7-.7-1.4-.877-2.982-1.228l-4.035-.526a11.142,11.142,0,0,1-6.491-2.807A9.151,9.151,0,0,1,1.978,11.2c0-5.965,4.386-10.175,11.754-10.175,4.561,0,8.07,1.053,10.877,3.861L20.4,8.92c-2.105-2.105-4.737-2.279-6.842-2.279-3.509,0-5.263,1.928-5.263,4.211a3.464,3.464,0,0,0,1.053,2.456,6.612,6.612,0,0,0,3.158,1.4l4.035.526c3.158.351,5.088,1.228,6.491,2.632a9.812,9.812,0,0,1,2.632,7.193c0,6.491-5.614,10.174-12.632,10.174" transform="translate(-0.75 -0.85)" fill="#fff"/>
                <path id="Fill-4" d="M20.35,34.809V1.125H42.631V6.916H27.017v7.895H40.35v5.965H27.017v8.246H42.631v5.789H20.35" transform="translate(14.036 -0.774)" fill="#fff"/>
                <path id="Fill-5" d="M70.306,35.16c-6.842,0-12.456-4.737-12.456-11.928V1.125h6.667V23.057c0,3.86,2.281,6.14,5.789,6.14s5.789-2.281,5.789-6.14V1.125h6.491V23.232c0,7.191-5.439,11.928-12.281,11.928" transform="translate(42.325 -0.774)" fill="#fff"/>
                <path id="Fill-6" d="M99.029,31.628a11.767,11.767,0,0,1-9.123,3.682,12.406,12.406,0,0,1-9.123-3.682c-3.333-3.335-3.333-7.544-3.333-13.509,0-5.789-.175-10,3.333-13.51A11.768,11.768,0,0,1,89.907.925a12.7,12.7,0,0,1,9.123,3.684c3.333,3.335,3.333,7.544,3.333,13.51,0,5.788,0,10-3.333,13.509M94.117,8.644a5.93,5.93,0,0,0-8.421,0c-1.228,1.4-1.579,2.982-1.579,9.475s.351,8.068,1.579,9.474a5.93,5.93,0,0,0,8.421,0c1.228-1.4,1.579-2.982,1.579-9.474s-.351-8.07-1.579-9.475" transform="translate(57.11 -0.925)" fill="#fff"/>
                <path id="Fill-7" d="M128.357,34.809l-1.93-5.965H114.5l-2.105,5.965H105.55L117.831,1.125h5.088L135.2,34.809Zm-7.895-23.858-4.211,12.281h8.421l-4.211-12.281Z" transform="translate(78.309 -0.774)" fill="#fff"/>
                <path id="Fill-8" d="M144.45,1.125h8.421V9.548H144.45Z" transform="translate(107.654 -0.774)" fill="#50b848"/>
                <path id="Fill-9" d="M134.261,27.618V1.125h-4.21v30.7l4.21-4.211" transform="translate(96.791 -0.774)" fill="#50b848"/>
                <path id="Fill-10" d="M135.961,17.926l-4.211,4.211h30.7V17.926H135.961" transform="translate(98.074 11.9)" fill="#50b848"/>
                <path id="Fill-11" d="M139.061,19.2V1.125H134.85V23.406l4.211-4.209" transform="translate(100.412 -0.774)" fill="#50b848"/>
                <path id="Fill-12" d="M140.761,13.126l-4.21,4.211h22.281V13.126h-18.07" transform="translate(101.695 8.279)" fill="#50b848"/>
                <path id="Fill-13" d="M143.861,10.775V1.126H139.65v13.86l4.211-4.211" transform="translate(104.033 -0.773)" fill="#50b848"/>
                <path id="Fill-14" d="M145.561,8.325l-4.21,4.212h13.86V8.325h-9.649" transform="translate(105.316 4.657)" fill="#50b848"/>
              </g>
            </g>
          </g>
        </g>
      </g>
    </g>
  </g>
</svg>
